<svg width="83" height="74" viewBox="0 0 83 74" fill="none" xmlns="http://www.w3.org/2000/svg">
<g id="Group 49">
<g id="Group 48">
<path id="Vector" fill-rule="evenodd" clip-rule="evenodd" d="M24.7971 46.4745L23.6063 36.954C20.4534 34.7411 18.0244 32.9197 15.1052 30.822C13.727 20.7936 16.2728 15.3532 20.0094 10.1894C24.657 4.35696 32.1303 0 41.075 0C50.02 0.0919636 57.5166 4.54125 61.9309 10.3736C66.0642 15.9064 68.2832 22.8683 66.6713 31.0987L58.6143 36.954L57.4227 46.4745H44.6486C43.8544 47.0974 42.7804 47.6733 41.075 47.7196C39.3935 47.6733 38.3424 47.0974 37.4784 46.4745H24.7971Z" fill="#CC2229"/>
<path id="Vector_2" fill-rule="evenodd" clip-rule="evenodd" d="M41.0753 33.2655C40.398 24.3899 40.2113 13.4396 39.6508 4.65674C38.6933 4.4261 37.3387 4.49544 36.2177 4.67973C35.0968 5.02569 34.2794 5.3253 33.3218 5.85555C35.0735 14.2929 37.1054 25.0354 38.8338 33.4038C36.4751 25.2661 33.3218 15.0767 30.9867 6.96204C29.8658 7.19268 28.7681 7.81489 27.9744 8.46046C27.1337 9.10603 26.6431 9.5903 25.8722 10.7428C29.2584 17.8893 33.3218 26.9951 36.732 34.0953C32.7846 27.6403 27.9969 19.1341 24.0266 12.7255C23.2562 13.394 22.672 13.8783 21.9012 15.1691C21.2472 16.2066 20.9203 17.4284 20.7802 18.6042C25.1243 23.8374 30.3087 30.1077 34.6761 35.3171C30.1224 30.9832 24.5169 25.4044 20.0098 21.0704C19.5661 21.9463 19.2859 22.6842 19.1458 24.1362C18.9823 25.5423 19.2626 27.225 19.5661 28.2396L28.3707 34.6945L29.3049 41.8641L38.9972 41.933C39.6978 42.7399 39.9311 43.1548 41.0757 43.2238C42.173 43.1548 42.8041 42.4863 43.0843 41.933H52.7525L53.733 34.7405L62.4681 28.3315C62.7945 27.2714 63.0045 25.6343 62.8884 24.2282C62.7483 22.7068 62.4681 21.9459 62.0943 21.139C57.5639 25.45 51.9351 31.0291 47.428 35.3627C51.8183 30.1989 56.9565 23.9052 61.3468 18.6265C61.1135 17.451 60.8332 16.2518 60.1323 15.2147C59.3148 13.9235 58.8475 13.4396 58.1004 12.7481C54.1071 19.1337 49.2492 27.7097 45.3022 34.1179C48.8059 26.9948 52.7758 17.8889 56.2093 10.8351C55.4621 9.70525 54.9246 9.12902 54.1774 8.5298C53.2901 7.86124 52.1924 7.23902 51.1181 6.98539C48.6658 15.0767 45.6534 25.3584 43.271 33.4268C44.9288 25.0584 47.0077 14.4082 48.6658 5.99423C47.8254 5.39464 47.008 5.09503 45.9096 4.77243C44.6489 4.54179 43.4111 4.4958 42.4299 4.65711C41.7763 13.509 41.7523 24.4362 41.0753 33.2655Z" fill="#F6D330"/>
</g>
<path id="Vector_3" fill-rule="evenodd" clip-rule="evenodd" d="M0 69.1466H7.0778C6.96865 70.6064 7.73505 70.9455 8.10006 71.1835C8.50087 71.3189 11.4567 71.4543 12.9156 71.2168C13.4995 71.1153 14.0464 70.9116 14.0464 69.2481C14.0464 68.5356 13.8639 67.7549 12.9884 67.5846C9.88698 67.3476 6.85891 67.6528 3.75808 67.3809C0.656668 66.7367 0.183081 65.9893 0 63.7154C0.218889 60.5587 1.42307 59.6426 4.88891 59.5405C8.50005 59.439 12.1137 59.439 15.7248 59.5405C19.4095 59.5405 20.5404 60.865 20.5404 63.7498H14.0464C14.0464 62.3238 13.7548 61.7811 12.9884 61.7129C11.4093 61.6113 9.82464 61.6113 8.2456 61.7129C7.6617 61.7129 6.89588 61.9847 6.89588 63.2743C6.89588 64.4956 7.22392 64.8013 8.10006 64.9039C10.7631 65.005 13.4631 65.0394 16.0898 65.2081C20.4676 65.4461 20.6137 67.245 20.7592 69.1455C20.832 71.8616 19.774 72.811 19.0081 73.2532C18.2787 73.5584 14.7395 73.9324 14.0464 73.9324H7.042C5.47281 73.9324 3.5028 73.7626 1.78808 73.2871C0.182504 72.8803 0 70.8778 0 69.1466ZM66.51 74.0001H72.7116V59.6093H66.51V74.0001ZM76.8705 74.0001H83V59.6093H76.8705V74.0001ZM62.898 66.4648C62.7851 66.0147 62.6384 65.5725 62.4591 65.1414C61.401 63.5462 57.7533 63.5462 54.2146 63.4779C51.5516 63.4779 47.5752 63.5462 46.4074 64.5977C45.9327 65.0732 45.6774 65.7518 45.5318 66.4648C45.3493 67.3138 45.3851 68.1955 45.3851 68.6033C45.3851 69.3497 45.4585 72.2345 46.9543 72.9813C48.3404 73.8303 52.5357 73.9324 54.1407 73.9324C55.8554 73.9324 60.5988 73.7626 61.2924 73.0152C62.5318 72.6079 62.8241 71.183 63.0794 70.0632H56.9869C56.9869 71.183 56.0379 71.8621 54.1407 71.759C52.426 71.8616 51.4413 71.4881 51.4413 69.4861L63.0788 69.5194C63.0794 68.5356 63.1169 67.483 62.898 66.4648ZM56.9869 67.4492H51.4413C51.4413 67.0419 51.5146 66.7018 51.6238 66.4648C52.024 65.5487 53.0463 65.5149 54.1401 65.4466C55.8185 65.4466 56.5485 65.8201 56.8407 66.4648C56.9868 66.7367 57.0232 67.0758 56.9869 67.4492ZM24.4076 74.0001H30.4637V67.8903C30.6098 67.0424 30.8287 66.3633 33.054 66.3633C35.1695 66.33 35.7534 66.8721 35.7534 67.8903V74.0001H41.8096V67.8903C41.8096 65.8878 41.7738 64.8019 40.3871 64.2259C39.1465 63.4785 37.3584 63.5806 35.6807 63.5806C33.9296 63.5806 31.9596 63.7842 30.4637 64.4634V59.6098H24.4076V74.0001Z" fill="#CC2229"/>
</g>
</svg>
